<svg width="279" height="151" viewBox="0 0 279 151" fill="none" xmlns="http://www.w3.org/2000/svg">
<path d="M6.18092 96.5436C5.73452 96.5436 5.3568 96.4063 5.04776 96.1316C4.77305 95.8225 4.63569 95.4448 4.63569 94.9984V69.9142C4.63569 69.4334 4.77305 69.0557 5.04776 68.781C5.3568 68.5063 5.73452 68.3689 6.18092 68.3689C6.66166 68.3689 7.03939 68.5063 7.31409 68.781C7.5888 69.0557 7.72616 69.4334 7.72616 69.9142V72.5926C8.85933 71.1847 10.2672 70.0687 11.9498 69.2446C13.6667 68.4204 15.521 68.0084 17.5126 68.0084C19.985 68.0084 22.1998 68.5234 24.1571 69.5536C26.1487 70.5494 27.7111 72.026 28.8443 73.9833C29.9775 75.9062 30.5441 78.2927 30.5441 81.1428V94.9984C30.5441 95.4448 30.3895 95.8225 30.0805 96.1316C29.8058 96.4063 29.4452 96.5436 28.9988 96.5436C28.5524 96.5436 28.1747 96.4063 27.8657 96.1316C27.591 95.8225 27.4536 95.4448 27.4536 94.9984V81.1428C27.4536 78.8765 27.0072 77.005 26.1144 75.5285C25.2559 74.0519 24.0713 72.9531 22.5604 72.232C21.0838 71.4766 19.4012 71.0988 17.5126 71.0988C15.6583 71.0988 13.9929 71.4594 12.5164 72.1805C11.0398 72.8673 9.87231 73.8287 9.01385 75.0649C8.15539 76.3011 7.72616 77.6918 7.72616 79.237V94.9984C7.72616 95.4448 7.5888 95.8225 7.31409 96.1316C7.03939 96.4063 6.66166 96.5436 6.18092 96.5436ZM64.789 96.8527C62.042 96.8527 59.5696 96.2346 57.3719 94.9984C55.2086 93.7279 53.4917 92.011 52.2212 89.8476C50.985 87.65 50.3669 85.1948 50.3669 82.482C50.3669 79.735 50.985 77.2798 52.2212 75.1164C53.4917 72.9188 55.2086 71.2018 57.3719 69.9657C59.5696 68.6951 62.042 68.0599 64.789 68.0599C67.5361 68.0599 69.9913 68.6951 72.1547 69.9657C74.318 71.2018 76.0177 72.9188 77.2539 75.1164C78.5244 77.2798 79.1597 79.735 79.1597 82.482C79.1597 85.1948 78.5244 87.65 77.2539 89.8476C76.0177 92.011 74.318 93.7279 72.1547 94.9984C69.9913 96.2346 67.5361 96.8527 64.789 96.8527ZM64.789 93.9683C66.9524 93.9683 68.8753 93.4703 70.5579 92.4745C72.2748 91.4444 73.614 90.0708 74.5755 88.3539C75.5713 86.6027 76.0692 84.6454 76.0692 82.482C76.0692 80.2844 75.5713 78.3271 74.5755 76.6102C73.614 74.8589 72.2748 73.4854 70.5579 72.4895C68.8753 71.4594 66.9524 70.9443 64.789 70.9443C62.6601 70.9443 60.7371 71.4594 59.0202 72.4895C57.3033 73.4854 55.9469 74.8589 54.9511 76.6102C53.9553 78.3271 53.4574 80.2844 53.4574 82.482C53.4574 84.6454 53.9553 86.6027 54.9511 88.3539C55.9469 90.0708 57.3033 91.4444 59.0202 92.4745C60.7371 93.4703 62.6601 93.9683 64.789 93.9683ZM111.955 96.8527C109.277 96.8527 106.873 96.2174 104.744 94.9469C102.649 93.6764 100.984 91.9595 99.7479 89.7961C98.546 87.6328 97.9451 85.1948 97.9451 82.482C97.9451 79.735 98.5117 77.2798 99.6449 75.1164C100.778 72.9531 102.34 71.2534 104.332 70.0172C106.324 68.7466 108.607 68.1114 111.183 68.1114C113.38 68.1114 115.389 68.5406 117.209 69.3991C119.029 70.2232 120.609 71.4937 121.948 73.2106C122.222 73.554 122.325 73.9146 122.257 74.2923C122.188 74.67 121.965 74.9791 121.587 75.2194C121.278 75.4598 120.935 75.5628 120.557 75.5285C120.179 75.4598 119.853 75.2538 119.578 74.9104C117.381 72.3007 114.582 70.9958 111.183 70.9958C109.157 70.9958 107.371 71.4937 105.826 72.4895C104.315 73.4854 103.13 74.8417 102.272 76.5586C101.448 78.2756 101.036 80.25 101.036 82.482C101.036 84.6454 101.499 86.6027 102.426 88.3539C103.353 90.0708 104.624 91.4444 106.238 92.4745C107.886 93.4703 109.792 93.9683 111.955 93.9683C113.363 93.9683 114.685 93.7622 115.921 93.3502C117.192 92.9381 118.291 92.3028 119.218 91.4444C119.527 91.1697 119.87 91.0151 120.248 90.9808C120.626 90.9465 120.952 91.0667 121.227 91.3414C121.57 91.6504 121.742 92.011 121.742 92.423C121.776 92.8007 121.639 93.127 121.33 93.4017C118.823 95.7023 115.698 96.8527 111.955 96.8527Z" fill="white"/>
<path d="M143.209 97.3678C142.453 97.3678 141.818 97.1102 141.303 96.5951C140.822 96.1144 140.582 95.4963 140.582 94.7409C140.582 93.9854 140.839 93.3673 141.354 92.8866C141.87 92.4059 142.488 92.1655 143.209 92.1655C143.93 92.1655 144.531 92.423 145.011 92.9381C145.527 93.4188 145.784 94.0198 145.784 94.7409C145.784 95.462 145.527 96.0801 145.011 96.5951C144.531 97.1102 143.93 97.3678 143.209 97.3678Z" fill="#068AB2"/>
<path d="M177.161 96.5436C175.273 96.5093 173.59 96.0801 172.113 95.2559C170.637 94.3975 169.487 93.23 168.662 91.7534C167.838 90.2425 167.426 88.5428 167.426 86.6542V72.1805H163.409C162.997 72.1805 162.653 72.0603 162.378 71.8199C162.138 71.5452 162.018 71.2018 162.018 70.7898C162.018 70.3777 162.138 70.0515 162.378 69.8111C162.653 69.5364 162.997 69.3991 163.409 69.3991H167.426V61.0033C167.426 60.5226 167.564 60.1449 167.838 59.8702C168.147 59.5611 168.525 59.4066 168.971 59.4066C169.452 59.4066 169.83 59.5611 170.105 59.8702C170.414 60.1449 170.568 60.5226 170.568 61.0033V69.3991H177.367C177.779 69.3991 178.105 69.5364 178.346 69.8111C178.621 70.0515 178.758 70.3777 178.758 70.7898C178.758 71.2018 178.621 71.5452 178.346 71.8199C178.105 72.0603 177.779 72.1805 177.367 72.1805H170.568V86.6542C170.568 88.6458 171.186 90.2769 172.422 91.5474C173.659 92.7836 175.255 93.4017 177.213 93.4017H178.346C178.827 93.4017 179.204 93.5562 179.479 93.8652C179.788 94.1399 179.943 94.5177 179.943 94.9984C179.943 95.4448 179.788 95.8225 179.479 96.1316C179.204 96.4063 178.827 96.5436 178.346 96.5436H177.161ZM211.894 96.8527C209.147 96.8527 206.674 96.2346 204.477 94.9984C202.313 93.7279 200.596 92.011 199.326 89.8476C198.09 87.65 197.472 85.1948 197.472 82.482C197.472 79.735 198.09 77.2798 199.326 75.1164C200.596 72.9188 202.313 71.2018 204.477 69.9657C206.674 68.6951 209.147 68.0599 211.894 68.0599C214.641 68.0599 217.096 68.6951 219.259 69.9657C221.423 71.2018 223.123 72.9188 224.359 75.1164C225.629 77.2798 226.264 79.735 226.264 82.482C226.264 85.1948 225.629 87.65 224.359 89.8476C223.123 92.011 221.423 93.7279 219.259 94.9984C217.096 96.2346 214.641 96.8527 211.894 96.8527ZM211.894 93.9683C214.057 93.9683 215.98 93.4703 217.663 92.4745C219.38 91.4444 220.719 90.0708 221.68 88.3539C222.676 86.6027 223.174 84.6454 223.174 82.482C223.174 80.2844 222.676 78.3271 221.68 76.6102C220.719 74.8589 219.38 73.4854 217.663 72.4895C215.98 71.4594 214.057 70.9443 211.894 70.9443C209.765 70.9443 207.842 71.4594 206.125 72.4895C204.408 73.4854 203.052 74.8589 202.056 76.6102C201.06 78.3271 200.562 80.2844 200.562 82.482C200.562 84.6454 201.06 86.6027 202.056 88.3539C203.052 90.0708 204.408 91.4444 206.125 92.4745C207.842 93.4703 209.765 93.9683 211.894 93.9683ZM248.14 96.5436C247.694 96.5436 247.316 96.4063 247.007 96.1316C246.733 95.8225 246.595 95.4448 246.595 94.9984V69.9142C246.595 69.4334 246.733 69.0557 247.007 68.781C247.316 68.5063 247.694 68.3689 248.14 68.3689C248.621 68.3689 248.999 68.5063 249.274 68.781C249.548 69.0557 249.686 69.4334 249.686 69.9142V72.5926C250.819 71.1847 252.227 70.0687 253.909 69.2446C255.626 68.4204 257.48 68.0084 259.472 68.0084C261.944 68.0084 264.159 68.5234 266.117 69.5536C268.108 70.5494 269.671 72.026 270.804 73.9833C271.937 75.9062 272.504 78.2927 272.504 81.1428V94.9984C272.504 95.4448 272.349 95.8225 272.04 96.1316C271.765 96.4063 271.405 96.5436 270.958 96.5436C270.512 96.5436 270.134 96.4063 269.825 96.1316C269.55 95.8225 269.413 95.4448 269.413 94.9984V81.1428C269.413 78.8765 268.967 77.005 268.074 75.5285C267.215 74.0519 266.031 72.9531 264.52 72.232C263.043 71.4766 261.361 71.0988 259.472 71.0988C257.618 71.0988 255.952 71.4594 254.476 72.1805C252.999 72.8673 251.832 73.8287 250.973 75.0649C250.115 76.3011 249.686 77.6918 249.686 79.237V94.9984C249.686 95.4448 249.548 95.8225 249.274 96.1316C248.999 96.4063 248.621 96.5436 248.14 96.5436Z" fill="#1E152A"/>
<mask id="path-2-inside-1" fill="white">
<path fill-rule="evenodd" clip-rule="evenodd" d="M206.947 103.015C195.599 128.192 169.355 145.938 138.572 145.938C107.789 145.938 81.5445 128.192 70.1966 103.015H65.5079C77.1079 130.686 105.449 150.231 138.572 150.231C171.694 150.231 200.036 130.686 211.636 103.015H206.947ZM67.0001 55.8C75.8124 26.1684 104.395 4.29231 138.572 4.29231C172.749 4.29231 201.331 26.1684 210.144 55.8H214.616C205.689 23.6748 175.026 0 138.572 0C102.118 0 71.4548 23.6748 62.5278 55.8H67.0001Z"/>
</mask>
<path fill-rule="evenodd" clip-rule="evenodd" d="M206.947 103.015C195.599 128.192 169.355 145.938 138.572 145.938C107.789 145.938 81.5445 128.192 70.1966 103.015H65.5079C77.1079 130.686 105.449 150.231 138.572 150.231C171.694 150.231 200.036 130.686 211.636 103.015H206.947ZM67.0001 55.8C75.8124 26.1684 104.395 4.29231 138.572 4.29231C172.749 4.29231 201.331 26.1684 210.144 55.8H214.616C205.689 23.6748 175.026 0 138.572 0C102.118 0 71.4548 23.6748 62.5278 55.8H67.0001Z" fill="white"/>
<path d="M206.947 103.015V98.7231C205.259 98.7231 203.728 99.7126 203.034 101.252L206.947 103.015ZM70.1966 103.015L74.1097 101.252C73.416 99.7126 71.8847 98.7231 70.1966 98.7231V103.015ZM65.5079 103.015V98.7231C64.0711 98.7231 62.7296 99.442 61.9339 100.638C61.1382 101.835 60.9939 103.35 61.5494 104.675L65.5079 103.015ZM211.636 103.015L215.594 104.675C216.15 103.35 216.006 101.835 215.21 100.638C214.414 99.442 213.073 98.7231 211.636 98.7231V103.015ZM67.0001 55.8V60.0923C68.8995 60.0923 70.573 58.8441 71.1144 57.0236L67.0001 55.8ZM210.144 55.8L206.029 57.0236C206.571 58.8441 208.244 60.0923 210.144 60.0923V55.8ZM214.616 55.8V60.0923C215.957 60.0923 217.222 59.4652 218.033 58.3973C218.845 57.3293 219.111 55.9433 218.751 54.6508L214.616 55.8ZM62.5278 55.8L58.3922 54.6508C58.0331 55.9433 58.2988 57.3293 59.1105 58.3973C59.9221 59.4652 61.1864 60.0923 62.5278 60.0923V55.8ZM138.572 150.231C171.019 150.231 198.809 131.516 210.86 104.779L203.034 101.252C192.389 124.867 167.69 141.646 138.572 141.646V150.231ZM66.2834 104.779C78.3348 131.516 106.125 150.231 138.572 150.231V141.646C109.453 141.646 84.7542 124.867 74.1097 101.252L66.2834 104.779ZM70.1966 98.7231H65.5079V107.308H70.1966V98.7231ZM61.5494 104.675C73.8305 133.97 103.752 154.523 138.572 154.523V145.938C107.146 145.938 80.3854 127.402 69.4664 101.356L61.5494 104.675ZM138.572 154.523C173.391 154.523 203.313 133.97 215.594 104.675L207.677 101.356C196.758 127.402 169.997 145.938 138.572 145.938V154.523ZM211.636 98.7231H206.947V107.308H211.636V98.7231ZM138.572 0C102.557 0 72.2569 23.0664 62.8859 54.5765L71.1144 57.0236C79.368 29.2705 106.233 8.58462 138.572 8.58462V0ZM214.258 54.5765C204.887 23.0664 174.587 0 138.572 0V8.58462C170.911 8.58462 197.776 29.2705 206.029 57.0236L214.258 54.5765ZM210.144 60.0923H214.616V51.5077H210.144V60.0923ZM218.751 54.6508C209.29 20.6012 176.884 -4.29231 138.572 -4.29231V4.29231C173.168 4.29231 202.088 26.7485 210.48 56.9492L218.751 54.6508ZM138.572 -4.29231C100.26 -4.29231 67.854 20.6012 58.3922 54.6508L66.6634 56.9492C75.0557 26.7485 103.975 4.29231 138.572 4.29231V-4.29231ZM62.5278 60.0923H67.0001V51.5077H62.5278V60.0923Z" fill="#068AB2" mask="url(#path-2-inside-1)"/>
</svg>
