<svg width="85" height="86" viewBox="0 0 85 86" fill="none" xmlns="http://www.w3.org/2000/svg">
<g filter="url(#filter0_d)">
<mask id="path-1-inside-1" fill="white">
<path d="M77.2822 36.6447C77.2822 54.976 61.7184 69.8364 42.5195 69.8364C23.3206 69.8364 7.75681 54.976 7.75681 36.6447C7.75681 18.3133 23.3206 3.45289 42.5195 3.45289C61.7184 3.45289 77.2822 18.3133 77.2822 36.6447Z"/>
</mask>
<path d="M77.2822 36.6447C77.2822 54.976 61.7184 69.8364 42.5195 69.8364C23.3206 69.8364 7.75681 54.976 7.75681 36.6447C7.75681 18.3133 23.3206 3.45289 42.5195 3.45289C61.7184 3.45289 77.2822 18.3133 77.2822 36.6447Z" fill="#1E152A"/>
<path d="M75.7616 36.6447C75.7616 54.0707 60.9456 68.3158 42.5195 68.3158L42.5195 71.357C62.4911 71.357 78.8027 55.8812 78.8027 36.6446L75.7616 36.6447ZM42.5195 68.3158C24.0934 68.3158 9.27739 54.0707 9.27739 36.6446L6.23624 36.6447C6.23624 55.8812 22.5478 71.357 42.5195 71.357L42.5195 68.3158ZM9.27739 36.6446C9.27739 19.2186 24.0933 4.97346 42.5195 4.97346L42.5195 1.93232C22.5478 1.93232 6.23624 17.4081 6.23624 36.6447L9.27739 36.6446ZM42.5195 4.97346C60.9456 4.97346 75.7616 19.2186 75.7616 36.6447L78.8027 36.6446C78.8027 17.4081 62.4911 1.93232 42.5195 1.93232L42.5195 4.97346Z" fill="#1E152A" mask="url(#path-1-inside-1)"/>
</g>
<path d="M79.7888 40.4336C79.7888 43.5828 77.2358 46.1358 74.0865 46.1358C70.9373 46.1358 68.3843 43.5828 68.3843 40.4336C68.3843 37.2844 70.9373 34.7315 74.0865 34.7315C77.2358 34.7315 79.7888 37.2844 79.7888 40.4336Z" fill="white" stroke="#1E152A" stroke-width="1.52057"/>
<path d="M15.1648 40.4336C15.1648 43.5828 12.6118 46.1358 9.46252 46.1358C6.31325 46.1358 3.76029 43.5828 3.76029 40.4336C3.76029 37.2844 6.31325 34.7315 9.46252 34.7315C12.6118 34.7315 15.1648 37.2844 15.1648 40.4336Z" fill="white" stroke="#1E152A" stroke-width="1.52057"/>
<defs>
<filter id="filter0_d" x="0.170149" y="3.45312" width="84.6987" height="81.5569" filterUnits="userSpaceOnUse" color-interpolation-filters="sRGB">
<feFlood flood-opacity="0" result="BackgroundImageFix"/>
<feColorMatrix in="SourceAlpha" type="matrix" values="0 0 0 0 0 0 0 0 0 0 0 0 0 0 0 0 0 0 127 0"/>
<feOffset dy="7.58669"/>
<feGaussianBlur stdDeviation="3.79334"/>
<feColorMatrix type="matrix" values="0 0 0 0 0 0 0 0 0 0 0 0 0 0 0 0 0 0 0.25 0"/>
<feBlend mode="normal" in2="BackgroundImageFix" result="effect1_dropShadow"/>
<feBlend mode="normal" in="SourceGraphic" in2="effect1_dropShadow" result="shape"/>
</filter>
</defs>
</svg>
