<svg width="277" height="151" viewBox="0 0 277 151" fill="none" xmlns="http://www.w3.org/2000/svg">
<path d="M6.18092 97C5.73452 97 5.3568 96.8626 5.04775 96.5879C4.77305 96.2789 4.63569 95.9012 4.63569 95.4548V70.3705C4.63569 69.8898 4.77305 69.5121 5.04775 69.2374C5.3568 68.9626 5.73452 68.8253 6.18092 68.8253C6.66166 68.8253 7.03938 68.9626 7.31409 69.2374C7.5888 69.5121 7.72615 69.8898 7.72615 70.3705V73.0489C8.85932 71.641 10.2672 70.525 11.9498 69.7009C13.6667 68.8768 15.521 68.4647 17.5126 68.4647C19.985 68.4647 22.1998 68.9798 24.1571 70.01C26.1487 71.0058 27.7111 72.4823 28.8443 74.4396C29.9775 76.3626 30.5441 78.7491 30.5441 81.5992V95.4548C30.5441 95.9012 30.3895 96.2789 30.0805 96.5879C29.8058 96.8626 29.4452 97 28.9988 97C28.5524 97 28.1747 96.8626 27.8657 96.5879C27.591 96.2789 27.4536 95.9012 27.4536 95.4548V81.5992C27.4536 79.3329 27.0072 77.4614 26.1144 75.9849C25.2559 74.5083 24.0713 73.4095 22.5604 72.6884C21.0838 71.9329 19.4012 71.5552 17.5126 71.5552C15.6583 71.5552 13.9929 71.9158 12.5164 72.6369C11.0398 73.3236 9.87231 74.2851 9.01385 75.5213C8.15538 76.7575 7.72615 78.1482 7.72615 79.6934V95.4548C7.72615 95.9012 7.5888 96.2789 7.31409 96.5879C7.03938 96.8626 6.66166 97 6.18092 97ZM64.789 97.309C62.042 97.309 59.5696 96.691 57.3719 95.4548C55.2086 94.1842 53.4917 92.4673 52.2212 90.304C50.985 88.1063 50.3669 85.6511 50.3669 82.9384C50.3669 80.1913 50.985 77.7361 52.2212 75.5728C53.4917 73.3751 55.2086 71.6582 57.3719 70.422C59.5696 69.1515 62.042 68.5162 64.789 68.5162C67.5361 68.5162 69.9913 69.1515 72.1546 70.422C74.318 71.6582 76.0177 73.3751 77.2539 75.5728C78.5244 77.7361 79.1597 80.1913 79.1597 82.9384C79.1597 85.6511 78.5244 88.1063 77.2539 90.304C76.0177 92.4673 74.318 94.1842 72.1546 95.4548C69.9913 96.691 67.5361 97.309 64.789 97.309ZM64.789 94.4246C66.9524 94.4246 68.8753 93.9267 70.5579 92.9309C72.2748 91.9007 73.614 90.5272 74.5755 88.8103C75.5713 87.059 76.0692 85.1017 76.0692 82.9384C76.0692 80.7407 75.5713 78.7834 74.5755 77.0665C73.614 75.3153 72.2748 73.9417 70.5579 72.9459C68.8753 71.9158 66.9524 71.4007 64.789 71.4007C62.66 71.4007 60.7371 71.9158 59.0202 72.9459C57.3032 73.9417 55.9469 75.3153 54.9511 77.0665C53.9552 78.7834 53.4573 80.7407 53.4573 82.9384C53.4573 85.1017 53.9552 87.059 54.9511 88.8103C55.9469 90.5272 57.3032 91.9007 59.0202 92.9309C60.7371 93.9267 62.66 94.4246 64.789 94.4246ZM111.955 97.309C109.277 97.309 106.873 96.6738 104.744 95.4033C102.649 94.1327 100.984 92.4158 99.7479 90.2525C98.546 88.0892 97.9451 85.6511 97.9451 82.9384C97.9451 80.1913 98.5117 77.7361 99.6448 75.5728C100.778 73.4095 102.34 71.7097 104.332 70.4735C106.324 69.203 108.607 68.5678 111.183 68.5678C113.38 68.5678 115.389 68.997 117.209 69.8554C119.029 70.6796 120.608 71.9501 121.948 73.667C122.222 74.0104 122.325 74.371 122.257 74.7487C122.188 75.1264 121.965 75.4354 121.587 75.6758C121.278 75.9162 120.935 76.0192 120.557 75.9849C120.179 75.9162 119.853 75.7102 119.578 75.3668C117.381 72.757 114.582 71.4522 111.183 71.4522C109.157 71.4522 107.371 71.9501 105.826 72.9459C104.315 73.9417 103.13 75.2981 102.272 77.015C101.448 78.7319 101.036 80.7064 101.036 82.9384C101.036 85.1017 101.499 87.059 102.426 88.8103C103.353 90.5272 104.624 91.9007 106.238 92.9309C107.886 93.9267 109.792 94.4246 111.955 94.4246C113.363 94.4246 114.685 94.2186 115.921 93.8065C117.192 93.3945 118.291 92.7592 119.218 91.9007C119.527 91.626 119.87 91.4715 120.248 91.4372C120.626 91.4028 120.952 91.523 121.227 91.7977C121.57 92.1068 121.742 92.4673 121.742 92.8794C121.776 93.2571 121.639 93.5833 121.33 93.858C118.823 96.1587 115.698 97.309 111.955 97.309ZM177.161 97C175.272 96.9657 173.59 96.5364 172.113 95.7123C170.637 94.8538 169.486 93.6863 168.662 92.2098C167.838 90.6989 167.426 88.9991 167.426 87.1105V72.6369H163.409C162.996 72.6369 162.653 72.5167 162.378 72.2763C162.138 72.0016 162.018 71.6582 162.018 71.2462C162.018 70.8341 162.138 70.5079 162.378 70.2675C162.653 69.9928 162.996 69.8554 163.409 69.8554H167.426V61.4597C167.426 60.979 167.564 60.6012 167.838 60.3265C168.147 60.0175 168.525 59.863 168.971 59.863C169.452 59.863 169.83 60.0175 170.105 60.3265C170.414 60.6012 170.568 60.979 170.568 61.4597V69.8554H177.367C177.779 69.8554 178.105 69.9928 178.346 70.2675C178.62 70.5079 178.758 70.8341 178.758 71.2462C178.758 71.6582 178.62 72.0016 178.346 72.2763C178.105 72.5167 177.779 72.6369 177.367 72.6369H170.568V87.1105C170.568 89.1022 171.186 90.7332 172.422 92.0038C173.659 93.2399 175.255 93.858 177.213 93.858H178.346C178.827 93.858 179.204 94.0126 179.479 94.3216C179.788 94.5963 179.943 94.974 179.943 95.4548C179.943 95.9012 179.788 96.2789 179.479 96.5879C179.204 96.8626 178.827 97 178.346 97H177.161ZM211.894 97.309C209.147 97.309 206.674 96.691 204.477 95.4548C202.313 94.1842 200.596 92.4673 199.326 90.304C198.09 88.1063 197.472 85.6511 197.472 82.9384C197.472 80.1913 198.09 77.7361 199.326 75.5728C200.596 73.3751 202.313 71.6582 204.477 70.422C206.674 69.1515 209.147 68.5162 211.894 68.5162C214.641 68.5162 217.096 69.1515 219.259 70.422C221.423 71.6582 223.122 73.3751 224.359 75.5728C225.629 77.7361 226.264 80.1913 226.264 82.9384C226.264 85.6511 225.629 88.1063 224.359 90.304C223.122 92.4673 221.423 94.1842 219.259 95.4548C217.096 96.691 214.641 97.309 211.894 97.309ZM211.894 94.4246C214.057 94.4246 215.98 93.9267 217.663 92.9309C219.38 91.9007 220.719 90.5272 221.68 88.8103C222.676 87.059 223.174 85.1017 223.174 82.9384C223.174 80.7407 222.676 78.7834 221.68 77.0665C220.719 75.3153 219.38 73.9417 217.663 72.9459C215.98 71.9158 214.057 71.4007 211.894 71.4007C209.765 71.4007 207.842 71.9158 206.125 72.9459C204.408 73.9417 203.052 75.3153 202.056 77.0665C201.06 78.7834 200.562 80.7407 200.562 82.9384C200.562 85.1017 201.06 87.059 202.056 88.8103C203.052 90.5272 204.408 91.9007 206.125 92.9309C207.842 93.9267 209.765 94.4246 211.894 94.4246ZM248.14 97C247.694 97 247.316 96.8626 247.007 96.5879C246.732 96.2789 246.595 95.9012 246.595 95.4548V70.3705C246.595 69.8898 246.732 69.5121 247.007 69.2374C247.316 68.9626 247.694 68.8253 248.14 68.8253C248.621 68.8253 248.999 68.9626 249.273 69.2374C249.548 69.5121 249.686 69.8898 249.686 70.3705V73.0489C250.819 71.641 252.227 70.525 253.909 69.7009C255.626 68.8768 257.48 68.4647 259.472 68.4647C261.944 68.4647 264.159 68.9798 266.116 70.01C268.108 71.0058 269.671 72.4823 270.804 74.4396C271.937 76.3626 272.503 78.7491 272.503 81.5992V95.4548C272.503 95.9012 272.349 96.2789 272.04 96.5879C271.765 96.8626 271.405 97 270.958 97C270.512 97 270.134 96.8626 269.825 96.5879C269.55 96.2789 269.413 95.9012 269.413 95.4548V81.5992C269.413 79.3329 268.967 77.4614 268.074 75.9849C267.215 74.5083 266.031 73.4095 264.52 72.6884C263.043 71.9329 261.361 71.5552 259.472 71.5552C257.618 71.5552 255.952 71.9158 254.476 72.6369C252.999 73.3236 251.832 74.2851 250.973 75.5213C250.115 76.7575 249.686 78.1482 249.686 79.6934V95.4548C249.686 95.9012 249.548 96.2789 249.273 96.5879C248.999 96.8626 248.621 97 248.14 97Z" fill="#1E152A"/>
<path d="M143.209 97.8241C142.453 97.8241 141.818 97.5666 141.303 97.0515C140.822 96.5708 140.582 95.9527 140.582 95.1972C140.582 94.4418 140.839 93.8237 141.354 93.343C141.869 92.8622 142.488 92.6218 143.209 92.6218C143.93 92.6218 144.531 92.8794 145.011 93.3945C145.527 93.8752 145.784 94.4761 145.784 95.1972C145.784 95.9183 145.527 96.5364 145.011 97.0515C144.531 97.5666 143.93 97.8241 143.209 97.8241Z" fill="#058ED9"/>
<mask id="path-2-inside-1" fill="white">
<path fill-rule="evenodd" clip-rule="evenodd" d="M206.945 103.016C195.597 128.192 169.352 145.938 138.569 145.938C107.787 145.938 81.5422 128.192 70.1942 103.016H65.5055C77.1056 130.686 105.447 150.231 138.569 150.231C171.692 150.231 200.033 130.686 211.633 103.016H206.945ZM66.9977 55.8001C75.81 26.1685 104.393 4.29231 138.569 4.29231C172.746 4.29231 201.329 26.1685 210.141 55.8001H214.613C205.686 23.6749 175.024 0 138.569 0C102.115 0 71.4524 23.6749 62.5254 55.8001H66.9977Z"/>
</mask>
<path fill-rule="evenodd" clip-rule="evenodd" d="M206.945 103.016C195.597 128.192 169.352 145.938 138.569 145.938C107.787 145.938 81.5422 128.192 70.1942 103.016H65.5055C77.1056 130.686 105.447 150.231 138.569 150.231C171.692 150.231 200.033 130.686 211.633 103.016H206.945ZM66.9977 55.8001C75.81 26.1685 104.393 4.29231 138.569 4.29231C172.746 4.29231 201.329 26.1685 210.141 55.8001H214.613C205.686 23.6749 175.024 0 138.569 0C102.115 0 71.4524 23.6749 62.5254 55.8001H66.9977Z" fill="#1E152A"/>
<path d="M206.945 103.016V98.7232C205.257 98.7232 203.725 99.7127 203.032 101.252L206.945 103.016ZM70.1942 103.016L74.1074 101.252C73.4137 99.7127 71.8823 98.7232 70.1942 98.7232V103.016ZM65.5055 103.016V98.7232C64.0687 98.7232 62.7272 99.4421 61.9315 100.638C61.1358 101.835 60.9915 103.35 61.547 104.675L65.5055 103.016ZM211.633 103.016L215.592 104.675C216.147 103.35 216.003 101.835 215.207 100.638C214.412 99.4421 213.07 98.7232 211.633 98.7232V103.016ZM66.9977 55.8001V60.0924C68.897 60.0924 70.5705 58.8442 71.1119 57.0237L66.9977 55.8001ZM210.141 55.8001L206.027 57.0237C206.568 58.8442 208.242 60.0924 210.141 60.0924V55.8001ZM214.613 55.8001V60.0924C215.955 60.0924 217.219 59.4653 218.031 58.3973C218.842 57.3294 219.108 55.9433 218.749 54.6509L214.613 55.8001ZM62.5254 55.8001L58.3898 54.6509C58.0306 55.9433 58.2964 57.3294 59.108 58.3973C59.9197 59.4653 61.184 60.0924 62.5254 60.0924V55.8001ZM138.569 150.231C171.016 150.231 198.806 131.516 210.858 104.779L203.032 101.252C192.387 124.867 167.688 141.646 138.569 141.646V150.231ZM66.281 104.779C78.3325 131.516 106.122 150.231 138.569 150.231V141.646C109.451 141.646 84.7519 124.867 74.1074 101.252L66.281 104.779ZM70.1942 98.7232H65.5055V107.308H70.1942V98.7232ZM61.547 104.675C73.8281 133.97 103.75 154.523 138.569 154.523V145.938C107.144 145.938 80.3831 127.402 69.464 101.356L61.547 104.675ZM138.569 154.523C173.389 154.523 203.311 133.97 215.592 104.675L207.675 101.356C196.756 127.402 169.995 145.938 138.569 145.938V154.523ZM211.633 98.7232H206.945V107.308H211.633V98.7232ZM138.569 0C102.554 0 72.2544 23.0664 62.8835 54.5766L71.1119 57.0237C79.3655 29.2705 106.231 8.58462 138.569 8.58462V0ZM214.255 54.5766C204.884 23.0664 174.584 0 138.569 0V8.58462C170.908 8.58462 197.773 29.2705 206.027 57.0237L214.255 54.5766ZM210.141 60.0924H214.613V51.5078H210.141V60.0924ZM218.749 54.6509C209.287 20.6012 176.881 -4.29231 138.569 -4.29231V4.29231C173.166 4.29231 202.086 26.7485 210.478 56.9493L218.749 54.6509ZM138.569 -4.29231C100.258 -4.29231 67.8515 20.6012 58.3898 54.6509L66.661 56.9493C75.0532 26.7485 103.973 4.29231 138.569 4.29231V-4.29231ZM62.5254 60.0924H66.9977V51.5078H62.5254V60.0924Z" fill="#058ED9" mask="url(#path-2-inside-1)"/>
</svg>
