<svg width="279" height="151" viewBox="0 0 279 151" fill="none" xmlns="http://www.w3.org/2000/svg">
<path d="M6.18092 96.5077C5.73452 96.5077 5.3568 96.3703 5.04775 96.0956C4.77305 95.7866 4.63569 95.4089 4.63569 94.9625V69.8782C4.63569 69.3975 4.77305 69.0198 5.04775 68.745C5.3568 68.4703 5.73452 68.333 6.18092 68.333C6.66166 68.333 7.03938 68.4703 7.31409 68.745C7.5888 69.0198 7.72615 69.3975 7.72615 69.8782V72.5566C8.85932 71.1487 10.2672 70.0327 11.9498 69.2086C13.6667 68.3845 15.521 67.9724 17.5126 67.9724C19.985 67.9724 22.1998 68.4875 24.1571 69.5177C26.1487 70.5135 27.7111 71.99 28.8443 73.9473C29.9775 75.8703 30.5441 78.2568 30.5441 81.1069V94.9625C30.5441 95.4089 30.3895 95.7866 30.0805 96.0956C29.8058 96.3703 29.4452 96.5077 28.9988 96.5077C28.5524 96.5077 28.1747 96.3703 27.8657 96.0956C27.591 95.7866 27.4536 95.4089 27.4536 94.9625V81.1069C27.4536 78.8406 27.0072 76.9691 26.1144 75.4926C25.2559 74.016 24.0713 72.9172 22.5604 72.1961C21.0838 71.4406 19.4012 71.0629 17.5126 71.0629C15.6583 71.0629 13.9929 71.4234 12.5164 72.1446C11.0398 72.8313 9.87231 73.7928 9.01385 75.029C8.15538 76.2652 7.72615 77.6559 7.72615 79.2011V94.9625C7.72615 95.4089 7.5888 95.7866 7.31409 96.0956C7.03938 96.3703 6.66166 96.5077 6.18092 96.5077ZM64.789 96.8167C62.042 96.8167 59.5696 96.1986 57.3719 94.9625C55.2086 93.6919 53.4917 91.975 52.2212 89.8117C50.985 87.614 50.3669 85.1588 50.3669 82.4461C50.3669 79.699 50.985 77.2438 52.2212 75.0805C53.4917 72.8828 55.2086 71.1659 57.3719 69.9297C59.5696 68.6592 62.042 68.0239 64.789 68.0239C67.5361 68.0239 69.9913 68.6592 72.1546 69.9297C74.318 71.1659 76.0177 72.8828 77.2539 75.0805C78.5244 77.2438 79.1597 79.699 79.1597 82.4461C79.1597 85.1588 78.5244 87.614 77.2539 89.8117C76.0177 91.975 74.318 93.6919 72.1546 94.9625C69.9913 96.1986 67.5361 96.8167 64.789 96.8167ZM64.789 93.9323C66.9524 93.9323 68.8753 93.4344 70.5579 92.4386C72.2748 91.4084 73.614 90.0349 74.5755 88.318C75.5713 86.5667 76.0692 84.6094 76.0692 82.4461C76.0692 80.2484 75.5713 78.2911 74.5755 76.5742C73.614 74.823 72.2748 73.4494 70.5579 72.4536C68.8753 71.4234 66.9524 70.9084 64.789 70.9084C62.66 70.9084 60.7371 71.4234 59.0202 72.4536C57.3032 73.4494 55.9469 74.823 54.9511 76.5742C53.9552 78.2911 53.4573 80.2484 53.4573 82.4461C53.4573 84.6094 53.9552 86.5667 54.9511 88.318C55.9469 90.0349 57.3032 91.4084 59.0202 92.4386C60.7371 93.4344 62.66 93.9323 64.789 93.9323ZM111.955 96.8167C109.277 96.8167 106.873 96.1815 104.744 94.911C102.649 93.6404 100.984 91.9235 99.7479 89.7602C98.546 87.5969 97.9451 85.1588 97.9451 82.4461C97.9451 79.699 98.5117 77.2438 99.6448 75.0805C100.778 72.9172 102.34 71.2174 104.332 69.9812C106.324 68.7107 108.607 68.0754 111.183 68.0754C113.38 68.0754 115.389 68.5047 117.209 69.3631C119.029 70.1873 120.608 71.4578 121.948 73.1747C122.222 73.5181 122.325 73.8786 122.257 74.2564C122.188 74.6341 121.965 74.9431 121.587 75.1835C121.278 75.4239 120.935 75.5269 120.557 75.4926C120.179 75.4239 119.853 75.2178 119.578 74.8745C117.381 72.2647 114.582 70.9599 111.183 70.9599C109.157 70.9599 107.371 71.4578 105.826 72.4536C104.315 73.4494 103.13 74.8058 102.272 76.5227C101.448 78.2396 101.036 80.2141 101.036 82.4461C101.036 84.6094 101.499 86.5667 102.426 88.318C103.353 90.0349 104.624 91.4084 106.238 92.4386C107.886 93.4344 109.792 93.9323 111.955 93.9323C113.363 93.9323 114.685 93.7263 115.921 93.3142C117.192 92.9022 118.291 92.2669 119.218 91.4084C119.527 91.1337 119.87 90.9792 120.248 90.9449C120.626 90.9105 120.952 91.0307 121.227 91.3054C121.57 91.6145 121.742 91.975 121.742 92.3871C121.776 92.7648 121.639 93.091 121.33 93.3657C118.823 95.6664 115.698 96.8167 111.955 96.8167ZM143.209 97.3318C142.453 97.3318 141.818 97.0743 141.303 96.5592C140.822 96.0785 140.582 95.4604 140.582 94.7049C140.582 93.9495 140.839 93.3314 141.354 92.8506C141.869 92.3699 142.488 92.1295 143.209 92.1295C143.93 92.1295 144.531 92.3871 145.011 92.9022C145.527 93.3829 145.784 93.9838 145.784 94.7049C145.784 95.426 145.527 96.0441 145.011 96.5592C144.531 97.0743 143.93 97.3318 143.209 97.3318ZM177.161 96.5077C175.272 96.4734 173.59 96.0441 172.113 95.22C170.637 94.3615 169.486 93.194 168.662 91.7175C167.838 90.2066 167.426 88.5068 167.426 86.6182V72.1446H163.409C162.996 72.1446 162.653 72.0244 162.378 71.784C162.138 71.5093 162.018 71.1659 162.018 70.7538C162.018 70.3418 162.138 70.0156 162.378 69.7752C162.653 69.5005 162.996 69.3631 163.409 69.3631H167.426V60.9674C167.426 60.4866 167.564 60.1089 167.838 59.8342C168.147 59.5252 168.525 59.3706 168.971 59.3706C169.452 59.3706 169.83 59.5252 170.105 59.8342C170.414 60.1089 170.568 60.4866 170.568 60.9674V69.3631H177.367C177.779 69.3631 178.105 69.5005 178.346 69.7752C178.62 70.0156 178.758 70.3418 178.758 70.7538C178.758 71.1659 178.62 71.5093 178.346 71.784C178.105 72.0244 177.779 72.1446 177.367 72.1446H170.568V86.6182C170.568 88.6098 171.186 90.2409 172.422 91.5114C173.659 92.7476 175.255 93.3657 177.213 93.3657H178.346C178.827 93.3657 179.204 93.5202 179.479 93.8293C179.788 94.104 179.943 94.4817 179.943 94.9625C179.943 95.4089 179.788 95.7866 179.479 96.0956C179.204 96.3703 178.827 96.5077 178.346 96.5077H177.161ZM211.894 96.8167C209.147 96.8167 206.674 96.1986 204.477 94.9625C202.313 93.6919 200.596 91.975 199.326 89.8117C198.09 87.614 197.472 85.1588 197.472 82.4461C197.472 79.699 198.09 77.2438 199.326 75.0805C200.596 72.8828 202.313 71.1659 204.477 69.9297C206.674 68.6592 209.147 68.0239 211.894 68.0239C214.641 68.0239 217.096 68.6592 219.259 69.9297C221.423 71.1659 223.122 72.8828 224.359 75.0805C225.629 77.2438 226.264 79.699 226.264 82.4461C226.264 85.1588 225.629 87.614 224.359 89.8117C223.122 91.975 221.423 93.6919 219.259 94.9625C217.096 96.1986 214.641 96.8167 211.894 96.8167ZM211.894 93.9323C214.057 93.9323 215.98 93.4344 217.663 92.4386C219.38 91.4084 220.719 90.0349 221.68 88.318C222.676 86.5667 223.174 84.6094 223.174 82.4461C223.174 80.2484 222.676 78.2911 221.68 76.5742C220.719 74.823 219.38 73.4494 217.663 72.4536C215.98 71.4234 214.057 70.9084 211.894 70.9084C209.765 70.9084 207.842 71.4234 206.125 72.4536C204.408 73.4494 203.052 74.823 202.056 76.5742C201.06 78.2911 200.562 80.2484 200.562 82.4461C200.562 84.6094 201.06 86.5667 202.056 88.318C203.052 90.0349 204.408 91.4084 206.125 92.4386C207.842 93.4344 209.765 93.9323 211.894 93.9323ZM248.14 96.5077C247.694 96.5077 247.316 96.3703 247.007 96.0956C246.732 95.7866 246.595 95.4089 246.595 94.9625V69.8782C246.595 69.3975 246.732 69.0198 247.007 68.745C247.316 68.4703 247.694 68.333 248.14 68.333C248.621 68.333 248.999 68.4703 249.273 68.745C249.548 69.0198 249.686 69.3975 249.686 69.8782V72.5566C250.819 71.1487 252.227 70.0327 253.909 69.2086C255.626 68.3845 257.48 67.9724 259.472 67.9724C261.944 67.9724 264.159 68.4875 266.116 69.5177C268.108 70.5135 269.671 71.99 270.804 73.9473C271.937 75.8703 272.503 78.2568 272.503 81.1069V94.9625C272.503 95.4089 272.349 95.7866 272.04 96.0956C271.765 96.3703 271.405 96.5077 270.958 96.5077C270.512 96.5077 270.134 96.3703 269.825 96.0956C269.55 95.7866 269.413 95.4089 269.413 94.9625V81.1069C269.413 78.8406 268.967 76.9691 268.074 75.4926C267.215 74.016 266.031 72.9172 264.52 72.1961C263.043 71.4406 261.361 71.0629 259.472 71.0629C257.618 71.0629 255.952 71.4234 254.476 72.1446C252.999 72.8313 251.832 73.7928 250.973 75.029C250.115 76.2652 249.686 77.6559 249.686 79.2011V94.9625C249.686 95.4089 249.548 95.7866 249.273 96.0956C248.999 96.3703 248.621 96.5077 248.14 96.5077Z" fill="white"/>
<mask id="path-2-inside-1" fill="white">
<path fill-rule="evenodd" clip-rule="evenodd" d="M206.945 103.016C195.597 128.192 169.352 145.938 138.569 145.938C107.787 145.938 81.5422 128.192 70.1942 103.016H65.5055C77.1056 130.686 105.447 150.231 138.569 150.231C171.692 150.231 200.033 130.686 211.633 103.016H206.945ZM66.9977 55.8001C75.81 26.1685 104.393 4.29231 138.569 4.29231C172.746 4.29231 201.329 26.1685 210.141 55.8001H214.613C205.686 23.6749 175.024 0 138.569 0C102.115 0 71.4524 23.6749 62.5254 55.8001H66.9977Z"/>
</mask>
<path fill-rule="evenodd" clip-rule="evenodd" d="M206.945 103.016C195.597 128.192 169.352 145.938 138.569 145.938C107.787 145.938 81.5422 128.192 70.1942 103.016H65.5055C77.1056 130.686 105.447 150.231 138.569 150.231C171.692 150.231 200.033 130.686 211.633 103.016H206.945ZM66.9977 55.8001C75.81 26.1685 104.393 4.29231 138.569 4.29231C172.746 4.29231 201.329 26.1685 210.141 55.8001H214.613C205.686 23.6749 175.024 0 138.569 0C102.115 0 71.4524 23.6749 62.5254 55.8001H66.9977Z" fill="#1E152A"/>
<path d="M206.945 103.016V98.7232C205.257 98.7232 203.725 99.7127 203.032 101.252L206.945 103.016ZM70.1942 103.016L74.1074 101.252C73.4137 99.7127 71.8823 98.7232 70.1942 98.7232V103.016ZM65.5055 103.016V98.7232C64.0687 98.7232 62.7272 99.4421 61.9315 100.638C61.1358 101.835 60.9915 103.35 61.547 104.675L65.5055 103.016ZM211.633 103.016L215.592 104.675C216.147 103.35 216.003 101.835 215.207 100.638C214.412 99.4421 213.07 98.7232 211.633 98.7232V103.016ZM66.9977 55.8001V60.0924C68.897 60.0924 70.5705 58.8442 71.1119 57.0237L66.9977 55.8001ZM210.141 55.8001L206.027 57.0237C206.568 58.8442 208.242 60.0924 210.141 60.0924V55.8001ZM214.613 55.8001V60.0924C215.955 60.0924 217.219 59.4653 218.031 58.3973C218.842 57.3294 219.108 55.9433 218.749 54.6509L214.613 55.8001ZM62.5254 55.8001L58.3898 54.6509C58.0306 55.9433 58.2964 57.3294 59.108 58.3973C59.9197 59.4653 61.184 60.0924 62.5254 60.0924V55.8001ZM138.569 150.231C171.016 150.231 198.806 131.516 210.858 104.779L203.032 101.252C192.387 124.867 167.688 141.646 138.569 141.646V150.231ZM66.281 104.779C78.3325 131.516 106.122 150.231 138.569 150.231V141.646C109.451 141.646 84.7519 124.867 74.1074 101.252L66.281 104.779ZM70.1942 98.7232H65.5055V107.308H70.1942V98.7232ZM61.547 104.675C73.8281 133.97 103.75 154.523 138.569 154.523V145.938C107.144 145.938 80.3831 127.402 69.464 101.356L61.547 104.675ZM138.569 154.523C173.389 154.523 203.311 133.97 215.592 104.675L207.675 101.356C196.756 127.402 169.995 145.938 138.569 145.938V154.523ZM211.633 98.7232H206.945V107.308H211.633V98.7232ZM138.569 0C102.554 0 72.2544 23.0664 62.8835 54.5766L71.1119 57.0237C79.3655 29.2705 106.231 8.58462 138.569 8.58462V0ZM214.255 54.5766C204.884 23.0664 174.584 0 138.569 0V8.58462C170.908 8.58462 197.773 29.2705 206.027 57.0237L214.255 54.5766ZM210.141 60.0924H214.613V51.5078H210.141V60.0924ZM218.749 54.6509C209.287 20.6012 176.881 -4.29231 138.569 -4.29231V4.29231C173.166 4.29231 202.086 26.7485 210.478 56.9493L218.749 54.6509ZM138.569 -4.29231C100.258 -4.29231 67.8515 20.6012 58.3898 54.6509L66.661 56.9493C75.0532 26.7485 103.973 4.29231 138.569 4.29231V-4.29231ZM62.5254 60.0924H66.9977V51.5078H62.5254V60.0924Z" fill="#058ED9" mask="url(#path-2-inside-1)"/>
</svg>
