<svg width="97" height="58" viewBox="0 0 97 58" fill="none" xmlns="http://www.w3.org/2000/svg">
<path d="M3.21231 24C2.98031 24 2.784 23.9286 2.62338 23.7858C2.48062 23.6252 2.40923 23.4289 2.40923 23.1969V10.1603C2.40923 9.91046 2.48062 9.71416 2.62338 9.57139C2.784 9.42862 2.98031 9.35723 3.21231 9.35723C3.46215 9.35723 3.65846 9.42862 3.80123 9.57139C3.944 9.71416 4.01538 9.91046 4.01538 10.1603V11.5523C4.60431 10.8206 5.336 10.2406 6.21046 9.81231C7.10277 9.384 8.06646 9.16985 9.10154 9.16985C10.3865 9.16985 11.5375 9.43754 12.5548 9.97292C13.5898 10.4905 14.4018 11.2578 14.9908 12.2751C15.5797 13.2745 15.8742 14.5148 15.8742 15.996V23.1969C15.8742 23.4289 15.7938 23.6252 15.6332 23.7858C15.4905 23.9286 15.3031 24 15.0711 24C14.8391 24 14.6428 23.9286 14.4822 23.7858C14.3394 23.6252 14.268 23.4289 14.268 23.1969V15.996C14.268 14.8182 14.036 13.8455 13.572 13.0782C13.1258 12.3108 12.5102 11.7397 11.7249 11.3649C10.9575 10.9723 10.0831 10.776 9.10154 10.776C8.13784 10.776 7.27231 10.9634 6.50492 11.3382C5.73754 11.6951 5.13077 12.1948 4.68461 12.8372C4.23846 13.4797 4.01538 14.2025 4.01538 15.0055V23.1969C4.01538 23.4289 3.944 23.6252 3.80123 23.7858C3.65846 23.9286 3.46215 24 3.21231 24ZM33.6717 24.1606C32.244 24.1606 30.9591 23.8394 29.8169 23.1969C28.6926 22.5366 27.8003 21.6443 27.14 20.52C26.4976 19.3778 26.1763 18.1018 26.1763 16.692C26.1763 15.2643 26.4976 13.9883 27.14 12.864C27.8003 11.7218 28.6926 10.8295 29.8169 10.1871C30.9591 9.52677 32.244 9.19662 33.6717 9.19662C35.0994 9.19662 36.3754 9.52677 37.4997 10.1871C38.624 10.8295 39.5074 11.7218 40.1499 12.864C40.8102 13.9883 41.1403 15.2643 41.1403 16.692C41.1403 18.1018 40.8102 19.3778 40.1499 20.52C39.5074 21.6443 38.624 22.5366 37.4997 23.1969C36.3754 23.8394 35.0994 24.1606 33.6717 24.1606ZM33.6717 22.6615C34.796 22.6615 35.7954 22.4028 36.6699 21.8852C37.5622 21.3498 38.2582 20.636 38.7579 19.7437C39.2754 18.8335 39.5342 17.8163 39.5342 16.692C39.5342 15.5498 39.2754 14.5326 38.7579 13.6403C38.2582 12.7302 37.5622 12.0163 36.6699 11.4988C35.7954 10.9634 34.796 10.6957 33.6717 10.6957C32.5653 10.6957 31.5659 10.9634 30.6736 11.4988C29.7813 12.0163 29.0763 12.7302 28.5588 13.6403C28.0413 14.5326 27.7825 15.5498 27.7825 16.692C27.7825 17.8163 28.0413 18.8335 28.5588 19.7437C29.0763 20.636 29.7813 21.3498 30.6736 21.8852C31.5659 22.4028 32.5653 22.6615 33.6717 22.6615ZM58.1846 24.1606C56.7926 24.1606 55.5434 23.8305 54.4369 23.1702C53.3483 22.5098 52.4827 21.6175 51.8403 20.4932C51.2157 19.3689 50.9034 18.1018 50.9034 16.692C50.9034 15.2643 51.1978 13.9883 51.7867 12.864C52.3757 11.7397 53.1877 10.8563 54.2227 10.2138C55.2578 9.55354 56.4446 9.22339 57.783 9.22339C58.9252 9.22339 59.9692 9.44646 60.915 9.89262C61.8609 10.3209 62.6818 10.9812 63.3778 11.8735C63.5206 12.052 63.5741 12.2394 63.5384 12.4357C63.5027 12.632 63.3867 12.7926 63.1904 12.9175C63.0298 13.0425 62.8514 13.096 62.655 13.0782C62.4587 13.0425 62.2892 12.9354 62.1464 12.7569C61.0043 11.4006 59.5498 10.7225 57.783 10.7225C56.7301 10.7225 55.8021 10.9812 54.999 11.4988C54.2138 12.0163 53.5981 12.7212 53.152 13.6135C52.7237 14.5058 52.5095 15.532 52.5095 16.692C52.5095 17.8163 52.7504 18.8335 53.2323 19.7437C53.7141 20.636 54.3744 21.3498 55.2132 21.8852C56.0698 22.4028 57.0603 22.6615 58.1846 22.6615C58.9163 22.6615 59.6034 22.5545 60.2458 22.3403C60.9061 22.1262 61.4772 21.796 61.959 21.3498C62.1197 21.2071 62.2981 21.1268 62.4944 21.1089C62.6907 21.0911 62.8603 21.1535 63.003 21.2963C63.1815 21.4569 63.2707 21.6443 63.2707 21.8585C63.2886 22.0548 63.2172 22.2243 63.0566 22.3671C61.7538 23.5628 60.1298 24.1606 58.1846 24.1606ZM2.70369 54.4283C2.31108 54.4283 1.98092 54.2945 1.71323 54.0268C1.46338 53.7769 1.33846 53.4557 1.33846 53.0631C1.33846 52.6705 1.47231 52.3492 1.74 52.0994C2.00769 51.8495 2.32892 51.7246 2.70369 51.7246C3.07846 51.7246 3.39077 51.8585 3.64061 52.1262C3.90831 52.376 4.04215 52.6883 4.04215 53.0631C4.04215 53.4378 3.90831 53.7591 3.64061 54.0268C3.39077 54.2945 3.07846 54.4283 2.70369 54.4283ZM20.3492 54C19.3677 53.9822 18.4932 53.7591 17.7258 53.3308C16.9584 52.8846 16.3606 52.2778 15.9323 51.5105C15.504 50.7252 15.2898 49.8418 15.2898 48.8603V41.3382H13.2018C12.9877 41.3382 12.8092 41.2757 12.6664 41.1508C12.5415 41.008 12.4791 40.8295 12.4791 40.6154C12.4791 40.4012 12.5415 40.2317 12.6664 40.1068C12.8092 39.964 12.9877 39.8926 13.2018 39.8926H15.2898V35.5292C15.2898 35.2794 15.3612 35.0831 15.504 34.9403C15.6646 34.7797 15.8609 34.6994 16.0929 34.6994C16.3428 34.6994 16.5391 34.7797 16.6818 34.9403C16.8424 35.0831 16.9228 35.2794 16.9228 35.5292V39.8926H20.4563C20.6704 39.8926 20.84 39.964 20.9649 40.1068C21.1077 40.2317 21.1791 40.4012 21.1791 40.6154C21.1791 40.8295 21.1077 41.008 20.9649 41.1508C20.84 41.2757 20.6704 41.3382 20.4563 41.3382H16.9228V48.8603C16.9228 49.8954 17.244 50.7431 17.8864 51.4034C18.5289 52.0458 19.3588 52.3671 20.376 52.3671H20.9649C21.2148 52.3671 21.4111 52.4474 21.5538 52.608C21.7144 52.7508 21.7948 52.9471 21.7948 53.1969C21.7948 53.4289 21.7144 53.6252 21.5538 53.7858C21.4111 53.9286 21.2148 54 20.9649 54H20.3492ZM38.4002 54.1606C36.9726 54.1606 35.6876 53.8394 34.5455 53.1969C33.4212 52.5366 32.5289 51.6443 31.8686 50.52C31.2261 49.3778 30.9049 48.1018 30.9049 46.692C30.9049 45.2643 31.2261 43.9883 31.8686 42.864C32.5289 41.7218 33.4212 40.8295 34.5455 40.1871C35.6876 39.5268 36.9726 39.1966 38.4002 39.1966C39.8279 39.1966 41.1039 39.5268 42.2282 40.1871C43.3526 40.8295 44.2359 41.7218 44.8784 42.864C45.5387 43.9883 45.8689 45.2643 45.8689 46.692C45.8689 48.1018 45.5387 49.3778 44.8784 50.52C44.2359 51.6443 43.3526 52.5366 42.2282 53.1969C41.1039 53.8394 39.8279 54.1606 38.4002 54.1606ZM38.4002 52.6615C39.5246 52.6615 40.5239 52.4028 41.3984 51.8852C42.2907 51.3498 42.9867 50.636 43.4864 49.7437C44.0039 48.8335 44.2627 47.8163 44.2627 46.692C44.2627 45.5498 44.0039 44.5326 43.4864 43.6403C42.9867 42.7302 42.2907 42.0163 41.3984 41.4988C40.5239 40.9634 39.5246 40.6957 38.4002 40.6957C37.2938 40.6957 36.2944 40.9634 35.4021 41.4988C34.5098 42.0163 33.8049 42.7302 33.2873 43.6403C32.7698 44.5326 32.511 45.5498 32.511 46.692C32.511 47.8163 32.7698 48.8335 33.2873 49.7437C33.8049 50.636 34.5098 51.3498 35.4021 51.8852C36.2944 52.4028 37.2938 52.6615 38.4002 52.6615ZM57.238 54C57.006 54 56.8097 53.9286 56.6491 53.7858C56.5063 53.6252 56.435 53.4289 56.435 53.1969V40.1603C56.435 39.9105 56.5063 39.7142 56.6491 39.5714C56.8097 39.4286 57.006 39.3572 57.238 39.3572C57.4879 39.3572 57.6842 39.4286 57.827 39.5714C57.9697 39.7142 58.0411 39.9105 58.0411 40.1603V41.5523C58.63 40.8206 59.3617 40.2406 60.2362 39.8123C61.1285 39.384 62.0922 39.1698 63.1273 39.1698C64.4122 39.1698 65.5633 39.4375 66.5805 39.9729C67.6156 40.4905 68.4276 41.2578 69.0165 42.2751C69.6054 43.2745 69.8999 44.5148 69.8999 45.996V53.1969C69.8999 53.4289 69.8196 53.6252 69.659 53.7858C69.5162 53.9286 69.3288 54 69.0968 54C68.8648 54 68.6685 53.9286 68.5079 53.7858C68.3651 53.6252 68.2937 53.4289 68.2937 53.1969V45.996C68.2937 44.8182 68.0617 43.8455 67.5977 43.0782C67.1516 42.3108 66.5359 41.7397 65.7507 41.3649C64.9833 40.9723 64.1088 40.776 63.1273 40.776C62.1636 40.776 61.298 40.9634 60.5307 41.3382C59.7633 41.6951 59.1565 42.1948 58.7103 42.8372C58.2642 43.4797 58.0411 44.2025 58.0411 45.0055V53.1969C58.0411 53.4289 57.9697 53.6252 57.827 53.7858C57.6842 53.9286 57.4879 54 57.238 54Z" fill="#1E152A"/>
<path fill-rule="evenodd" clip-rule="evenodd" d="M78.7663 51.0079C88.8131 49.259 96.4752 40.0714 96.4752 29.0001C96.4752 16.6799 86.9871 6.69238 75.2829 6.69238C72.3144 6.69238 69.4885 7.33482 66.9238 8.49481L67.5316 10.6767C69.9056 9.54854 72.5319 8.92315 75.2829 8.92315C85.6486 8.92315 94.2444 17.8027 94.2444 29.0001C94.2444 39.141 87.1941 47.3808 78.1639 48.8454L78.7663 51.0079Z" fill="#058ED9"/>
</svg>
