<svg width="48" height="44" viewBox="0 0 48 44" fill="none" xmlns="http://www.w3.org/2000/svg">
<path d="M45 23.0141C44.6409 26.7169 42.1827 31.0528 39.796 33.9946C37.4092 36.9364 34.1927 39.1697 30.5227 40.433C26.8528 41.6963 22.8812 41.9374 19.0727 41.1281C15.2641 40.3188 11.7762 38.4926 9.01708 35.8632C6.25792 33.2337 4.34162 29.9098 3.49241 26.2803C2.64321 22.6509 2.89621 18.866 4.22183 15.3686C5.54745 11.8711 7.89085 8.80581 10.9778 6.53128C14.0648 4.25675 17.7677 2.86709 21.6532 2.5249C19.3783 5.4578 18.2837 9.07138 18.5683 12.7084C18.8529 16.3454 20.4978 19.7643 23.204 22.3432C25.9101 24.9222 29.4977 26.4898 33.3141 26.761C37.1306 27.0322 40.9224 25.989 44 23.8212L45 23.0141Z" stroke="black" stroke-width="4.56524" stroke-linecap="round" stroke-linejoin="round"/>
</svg>
