<svg width="19" height="20" viewBox="0 0 19 20" fill="none" xmlns="http://www.w3.org/2000/svg">
<path d="M18.1124 6.84463L0.92432 0.0461788C0.801748 -0.00257404 0.668575 -0.0129836 0.540598 0.016185C0.41262 0.0453535 0.29521 0.112876 0.202295 0.210743C0.10938 0.30861 0.0448583 0.432713 0.016385 0.568332C-0.0120882 0.703951 -0.00331858 0.845394 0.0416537 0.975882L6.48033 19.2503C6.53031 19.3919 6.62064 19.5133 6.73873 19.5978C6.85682 19.6822 6.99679 19.7255 7.13913 19.7215C7.28147 19.7175 7.41909 19.6665 7.53281 19.5755C7.64652 19.4845 7.73068 19.3582 7.77354 19.214L9.61414 12.8586L15.8544 19.323C15.9826 19.4583 16.156 19.5342 16.3368 19.5342C16.5175 19.5342 16.691 19.4583 16.8192 19.323L18.4271 17.6161C18.5546 17.48 18.6261 17.2959 18.6261 17.104C18.6261 16.9122 18.5546 16.7281 18.4271 16.592L12.2074 10.1567L18.1124 8.21739C18.2468 8.168 18.3634 8.07534 18.4459 7.95232C18.5285 7.8293 18.5728 7.68204 18.5728 7.53101C18.5728 7.37999 18.5285 7.23272 18.4459 7.1097C18.3634 6.98668 18.2468 6.89402 18.1124 6.84463Z" fill="white"/>
</svg>
