<svg width="119" height="84" viewBox="0 0 119 84" fill="none" xmlns="http://www.w3.org/2000/svg">
<path d="M81.8688 29.2561L59.3728 17.0005L37 29.3197L37.0368 55.1568L59.3748 67.5194L81.9057 55.0982L81.8689 29.2561H81.8688ZM70.7007 47.2623L70.6861 37.0215L60.5253 42.7658L60.5738 54.2573L69.4383 49.3885L78.1312 54.356L60.6151 64.0125L60.5738 54.2573L59.3738 54.9164L58.0778 54.1965L58.1192 63.9988L40.7992 54.4136L49.4804 49.4206L58.0778 54.1965L58.0291 42.6613L48.2049 37.2051L48.2193 47.2934L39.5285 52.292L39.5002 32.3706L48.2049 37.2051L49.4663 35.0777L40.6056 30.1565L58.1281 20.5082V30.2903L49.4663 35.0778L59.3705 40.5785L69.2766 34.9782L60.624 30.2817V20.4972L78.0749 30.0042L69.2766 34.9781L70.6861 37.0215L79.3771 32.1082L79.4057 52.2365L70.7007 47.2622V47.2623Z" fill="#FF0035"/>
<path d="M0.0595 13.8461L0 69.2298C0 76.845 5.355 83.0757 11.9 83.0757H107.1C113.645 83.0757 119 76.845 119 69.2298V13.8461C119 6.23087 113.645 0.000213623 107.1 0.000213623H11.9C5.355 0.000213623 0.0595 6.23087 0.0595 13.8461ZM99.2447 13.8461V69.2298H17.85L17.85 13.8461H99.2447Z" fill="white"/>
</svg>
