<svg width="119" height="84" viewBox="0 0 119 84" fill="none" xmlns="http://www.w3.org/2000/svg">
<path d="M81.9157 29.0959L59.4197 16.8403L37.0469 29.1595L37.0836 54.9967L59.4217 67.3592L81.9525 54.9381L81.9158 29.0959H81.9157ZM70.7475 47.1021L70.733 36.8614L60.5722 42.6056L60.6207 54.0971L69.4852 49.2284L78.1781 54.1959L60.662 63.8524L60.6207 54.0971L59.4207 54.7562L58.1246 54.0363L58.1661 63.8387L40.8461 54.2534L49.5272 49.2604L58.1246 54.0363L58.076 42.5012L48.2518 37.0449L48.2661 47.1332L39.5753 52.1318L39.5471 32.2104L48.2518 37.0449L49.5131 34.9175L40.6525 29.9964L58.175 20.348V30.1301L49.5131 34.9176L59.4174 40.4183L69.3235 34.818L60.6709 30.1216V20.3371L78.1217 29.844L69.3235 34.8179L70.733 36.8614L79.424 31.948L79.4525 52.0764L70.7475 47.102V47.1021Z" fill="#FF0035"/>
<path d="M0.0595 13.8461L0 69.2298C0 76.845 5.355 83.0757 11.9 83.0757H107.1C113.645 83.0757 119 76.845 119 69.2298V13.8461C119 6.23087 113.645 0.000213623 107.1 0.000213623H11.9C5.355 0.000213623 0.0595 6.23087 0.0595 13.8461ZM99.2447 13.8461V69.2298H17.85L17.85 13.8461H99.2447Z" fill="#1E152A"/>
</svg>
