<svg width="48" height="45" viewBox="0 0 48 45" fill="none" xmlns="http://www.w3.org/2000/svg">
<path d="M45 23.4892C44.6409 27.192 42.1827 31.5279 39.796 34.4697C37.4092 37.4116 34.1927 39.6448 30.5227 40.9081C26.8528 42.1714 22.8812 42.4125 19.0727 41.6032C15.2641 40.7939 11.7762 38.9677 9.01708 36.3383C6.25792 33.7088 4.34162 30.3849 3.49241 26.7554C2.64321 23.126 2.89621 19.3411 4.22183 15.8437C5.54745 12.3462 7.89085 9.28091 10.9778 7.00638C14.0648 4.73185 17.7677 3.34219 21.6532 3C19.3783 5.9329 18.2837 9.54648 18.5683 13.1835C18.8529 16.8206 20.4978 20.2394 23.204 22.8184C25.9101 25.3973 29.4977 26.9649 33.3141 27.2361C37.1306 27.5073 40.9224 26.4641 44 24.2963L45 23.4892Z" stroke="white" stroke-width="4.56524" stroke-linecap="round" stroke-linejoin="round"/>
</svg>
