<svg width="39" height="38" viewBox="0 0 39 38" fill="none" xmlns="http://www.w3.org/2000/svg">
<path d="M19.5 33.4498C16.4146 33.4498 13.3985 32.5779 10.8331 30.9444C8.2677 29.3108 6.26821 26.989 5.08749 24.2724C3.90676 21.5559 3.59783 18.5667 4.19976 15.6829C4.80169 12.7991 6.28744 10.1501 8.46914 8.07097C10.6508 5.99184 13.4305 4.57594 16.4566 4.00231C19.4827 3.42867 22.6193 3.72308 25.4699 4.8483C28.3204 5.97352 30.7568 7.879 32.4709 10.3238C34.1851 12.7686 35.1 15.6429 35.1 18.5832C35.1 22.5261 33.4564 26.3075 30.5309 29.0955C27.6053 31.8835 23.6374 33.4498 19.5 33.4498ZM19.5 0C15.6433 0 11.8731 1.08989 8.66639 3.13184C5.45963 5.17379 2.96027 8.0761 1.48436 11.4717C0.00844904 14.8674 -0.377716 18.6039 0.374696 22.2086C1.12711 25.8134 2.9843 29.1247 5.71143 31.7236C8.43855 34.3225 11.9131 36.0924 15.6957 36.8094C19.4784 37.5264 23.3992 37.1584 26.9623 35.7519C30.5255 34.3454 33.571 31.9635 35.7137 28.9075C37.8563 25.8515 39 22.2587 39 18.5832C39 16.1429 38.4956 13.7264 37.5157 11.4717C36.5357 9.21712 35.0993 7.16852 33.2886 5.4429C31.4778 3.71729 29.3282 2.34846 26.9623 1.41456C24.5965 0.48067 22.0608 0 19.5 0Z" fill="black"/>
</svg>
